<svg width="140" height="106" viewBox="0 0 140 106" fill="none" xmlns="http://www.w3.org/2000/svg">
<path d="M28.6086 64.5704C22.8256 64.5704 17.7703 63.23 13.4426 60.5491C9.15318 57.83 5.84044 54.0577 3.50426 49.2321C1.16809 44.3682 0 38.7959 0 32.515C0 26.2724 1.14894 20.6809 3.44682 15.7405C5.78299 10.8001 9.03835 6.95108 13.2129 4.19369C17.3872 1.39794 22.1362 0 27.4596 0C32.1703 0 36.5555 1.12981 40.615 3.38942C44.6746 5.64892 47.9299 9.09575 50.3811 13.7298C52.8703 18.3639 54.1151 24.0511 54.1151 30.7916V34.4682H7.81277C7.92772 39.1405 8.84681 43.2193 10.5703 46.7044C12.2936 50.1513 14.7064 52.8321 17.8086 54.747C20.9107 56.6236 24.5107 57.5619 28.6086 57.5619C32.5533 57.5619 35.8469 56.7385 38.4894 55.0917C41.1704 53.4448 43.1619 51.4725 44.464 49.1746H52.8513C51.9321 52.0852 50.3427 54.7087 48.0831 57.0448C45.8618 59.381 43.0853 61.2193 39.7533 62.5597C36.4214 63.9003 32.7065 64.5704 28.6086 64.5704ZM46.0724 27.6895C46.0724 23.8214 45.2873 20.3171 43.7172 17.1766C42.147 14.0362 39.9448 11.5851 37.1108 9.82343C34.3151 8.02348 31.1362 7.12344 27.5746 7.12344C23.898 7.12344 20.6043 8.04254 17.6936 9.88084C14.783 11.7191 12.466 14.2085 10.7425 17.349C9.05753 20.4895 8.10008 23.9363 7.87019 27.6895H46.0724Z" fill="#DC5788"/>
<path d="M63.7884 45.0353L71.624 55.4121L79.4596 45.0353L84.3656 48.3884L74.377 61.5888V70.3068H68.8709V61.5888L58.8823 48.3884L63.7884 45.0353Z" fill="#DC5788"/>
<path d="M114.495 64.5704C108.711 64.5704 103.656 63.23 99.3284 60.5491C95.0389 57.83 91.7262 54.0577 89.39 49.2321C87.0538 44.3682 85.8857 38.7959 85.8857 32.515C85.8857 26.2724 87.0347 20.6809 89.3326 15.7405C91.6688 10.8001 94.9241 6.95108 99.0986 4.19369C103.273 1.39794 108.022 0 113.345 0C118.056 0 122.441 1.12981 126.501 3.38942C130.56 5.64892 133.816 9.09575 136.266 13.7298C138.756 18.3639 140 24.0511 140 30.7916V34.4682H93.6985C93.8134 39.1405 94.7325 43.2193 96.456 46.7044C98.1794 50.1513 100.592 52.8321 103.694 54.747C106.796 56.6236 110.396 57.5619 114.495 57.5619C118.438 57.5619 121.733 56.7385 124.375 55.0917C127.056 53.4448 129.047 51.4725 130.35 49.1746H138.737C137.818 52.0852 136.229 54.7087 133.968 57.0448C131.747 59.381 128.971 61.2193 125.639 62.5597C122.307 63.9003 118.593 64.5704 114.495 64.5704ZM131.958 27.6895C131.958 23.8214 131.173 20.3171 129.602 17.1766C128.033 14.0362 125.831 11.5851 122.996 9.82343C120.201 8.02348 117.022 7.12344 113.461 7.12344C109.784 7.12344 106.49 8.04254 103.579 9.88084C100.669 11.7191 98.3517 14.2085 96.6283 17.349C94.9433 20.4895 93.9858 23.9363 93.7559 27.6895H131.958Z" fill="#DC5788"/>
<path d="M90.2189 16.296C77.3073 11.5735 63.1494 11.5223 50.2041 16.1515L52.4097 22.3195C63.9135 18.2059 76.4948 18.2513 87.9687 22.448L90.2189 16.296Z" fill="#DC5788"/>
<path d="M28.2705 81.5731L25.0262 93.9065L32.286 96.5266L31.3402 100.122L20.5391 96.2243L24.7291 80.2954L28.2705 81.5731Z" fill="#DC5788"/>
<path d="M43.3822 103.241C41.2932 102.77 39.8461 101.579 38.9914 99.6773C37.305 95.8796 37.5877 90.9594 38.4854 84.9015L42.2964 85.758C41.9692 87.8993 41.7184 89.8652 41.5898 91.6665C41.2868 95.2572 41.7488 98.8291 44.0254 99.3162C45.5828 99.6903 46.8213 98.6691 47.7259 96.1996C48.6266 93.7536 49.3434 90.8335 49.9182 87.471L53.7291 88.3287C53.154 91.4006 52.5021 94.0713 51.7733 96.3396C50.2661 100.888 47.5834 104.185 43.3822 103.241Z" fill="#DC5788"/>
<path d="M54.5562 89.2993L58.3503 88.1557L62.5829 99.8209L68.1981 88.9864L71.8133 90.7547L64.1167 105.545L60.3652 105.229L54.5562 89.2993Z" fill="#DC5788"/>
<path d="M75.0127 88.8534L80.5003 95.4843L85.445 88.291L88.7988 90.3488L82.4948 99.4997L82.7229 105.308L79.0575 105.506L78.8293 99.6974L71.8345 91.2629L75.0127 88.8534Z" fill="#DC5788"/>
<path d="M98.6794 89.864C96.0708 90.3782 94.3767 92.963 94.7447 95.5254C95.1126 98.0867 97.4356 99.8809 100.044 99.3668C102.653 98.8526 104.347 96.2678 103.979 93.7054C103.611 91.1429 101.288 89.3499 98.6794 89.864ZM91.097 96.2431C90.6554 93.1689 91.8502 90.084 94.1723 88.0699C95.3317 87.051 96.6402 86.4098 98.1408 86.1133C101.119 85.5274 104.031 86.6298 105.907 88.9428C106.833 90.1017 107.406 91.45 107.627 92.9865C108.068 96.0607 106.851 99.1515 104.552 101.161C103.392 102.18 102.084 102.821 100.583 103.116C97.6049 103.703 94.6696 102.605 92.8173 100.288C91.8913 99.1291 91.3178 97.7808 91.097 96.2431Z" fill="#DC5788"/>
<path d="M119.269 97.9867C117.245 98.6879 115.504 98.3973 114.005 97.1549C111.031 94.6607 109.35 90.1076 107.764 84.2062L111.455 82.9285C112.007 85.0203 112.558 86.9133 113.151 88.5934C114.292 91.9688 116.1 94.916 118.296 94.1313C119.813 93.6312 120.503 92.0524 120.331 89.3581C120.165 86.6874 119.65 83.6897 118.838 80.3743L122.529 79.0966C123.228 82.1532 123.702 84.8921 123.949 87.3122C124.407 92.19 123.338 96.5784 119.269 97.9867Z" fill="#DC5788"/>
</svg>
